# xmcd CD database file
#
# Track frame offsets:
#	180
#	19421
#	30899
#	44558
#	59163
#	71378
#	85577
#	101379
#	113135
#	133296
#	150784
#	169223
#	190022
#	213247
#	231914
#
# Disc length: 3720 seconds
#
# Revision: 1
# Processed by: cddbd v1.4PL0 Copyright (c) Steve Scherf et al.
# Submitted via: CDex 1.51
#
DISCID=c20e860f
DTITLE=Peter Heger - Edwin Kimmler - Uli Kron - Christian Christl - The Piano Boogie Quartett
DYEAR=1900
DGENRE=Blues
TTITLE0=Warmin' Up Boogie
TTITLE1=Boogie Four Seasons
TTITLE2=Boogie Pour Adeline
TTITLE3=Schienboana Blues
TTITLE4=C and U Struggle
TTITLE5=Out Of Sight
TTITLE6=Gee Baby, Ain't I Good To You
TTITLE7=L.A.-Song
TTITLE8=Let It Happen
TTITLE9=Shake That Thing
TTITLE10=Boogie Meets Classic
TTITLE11=They Call Me CC The Boogie Man
TTITLE12=Yes, God Is Real
TTITLE13=Big Bass Men
TTITLE14=Quickie
EXTD=
EXTT0=
EXTT1=
EXTT2=
EXTT3=
EXTT4=
EXTT5=
EXTT6=
EXTT7=
EXTT8=
EXTT9=
EXTT10=
EXTT11=
EXTT12=
EXTT13=
EXTT14=
PLAYORDER=
